<svg width="13" height="23" viewBox="0 0 13 23" fill="none" xmlns="http://www.w3.org/2000/svg">
<path d="M11.305 22.1094H11.3045C11.2624 22.1094 11.2208 22.1011 11.1819 22.085C11.1431 22.069 11.1078 22.0454 11.0781 22.0157C11.078 22.0157 11.078 22.0157 11.0779 22.0156L0.966952 11.9041C0.906903 11.844 0.873169 11.7625 0.873169 11.6776C0.873169 11.5927 0.906903 11.5112 0.966952 11.4512L11.0781 1.33948L11.0781 1.3394C11.1079 1.30965 11.1432 1.28604 11.1821 1.26993C11.2209 1.25382 11.2626 1.24552 11.3047 1.24551C11.3467 1.2455 11.3884 1.25378 11.4273 1.26987L11.6174 0.810519L11.4273 1.26987C11.4661 1.28596 11.5015 1.30956 11.5312 1.3393C11.561 1.36904 11.5846 1.40435 11.6007 1.44322C11.6168 1.48209 11.6251 1.52375 11.6251 1.56582C11.6251 1.60789 11.6169 1.64956 11.6008 1.68843C11.5847 1.72727 11.5611 1.76256 11.5314 1.7923C11.5314 1.79233 11.5314 1.79236 11.5313 1.79239L1.99995 11.3238L1.64639 11.6773L1.99995 12.0309L11.5314 21.5624L11.5315 21.5625C11.5764 21.6073 11.6069 21.6644 11.6193 21.7265C11.6316 21.7887 11.6253 21.8531 11.601 21.9117C11.5768 21.9702 11.5357 22.0202 11.483 22.0554L11.7607 22.4712L11.483 22.0554C11.4303 22.0906 11.3683 22.1094 11.305 22.1094Z" fill="black" stroke="black"/>
</svg>
