<svg width="17" height="17" viewBox="0 0 17 17" fill="none" xmlns="http://www.w3.org/2000/svg">
<path d="M6.85835 0C3.22273 0 0.274902 2.94785 0.274902 6.58345C0.274902 10.2191 3.22273 13.1669 6.85835 13.1669C8.25637 13.1669 9.55293 12.7308 10.6187 11.9881L15.5973 16.9659C15.6422 17.0109 15.715 17.0109 15.7576 16.969L16.6956 16.0311C16.7389 15.9877 16.7351 15.9134 16.6925 15.8707L11.7789 10.9571C12.8136 9.79461 13.4418 8.26259 13.4418 6.58343C13.4418 2.94785 10.494 0 6.85835 0ZM6.85835 12.3924C3.65028 12.3924 1.04942 9.79152 1.04942 6.58345C1.04942 3.37538 3.65026 0.774544 6.85835 0.774544C10.0665 0.774544 12.6673 3.37538 12.6673 6.58345C12.6673 9.79152 10.0664 12.3924 6.85835 12.3924Z" fill="#626262"/>
</svg>
